<?xml version="1.0" encoding="UTF-8"?><svg id="_レイヤー_2" xmlns="http://www.w3.org/2000/svg" viewBox="0 0 91 93.87"><g id="_レイヤー_1-2"><g><path d="M2.5,0H20.83c1.23,0,2.28,.89,2.47,2.11l6.54,41.23h52.45s3.38-27,3.38-27H36.17c-1.38,0-2.5-1.12-2.5-2.5s1.12-2.5,2.5-2.5h52.33c.72,0,1.4,.31,1.87,.85,.47,.54,.7,1.25,.61,1.96l-4,32c-.16,1.25-1.22,2.19-2.48,2.19H30.64s2.33,14.67,2.33,14.67h49.53c1.38,0,2.5,1.12,2.5,2.5s-1.12,2.5-2.5,2.5H30.83c-1.23,0-2.28-.89-2.47-2.11l-3.06-19.27c-.08-.25-.14-.51-.14-.78,0-.02,0-.03,0-.05L18.7,5H2.5C1.12,5,0,3.88,0,2.5S1.12,0,2.5,0Z"/><path d="M60.61,82.87c0,6.07,4.93,11,11,11s11-4.93,11-11-4.93-11-11-11-11,4.93-11,11Zm5,0c0-3.31,2.69-6,6-6s6,2.69,6,6-2.69,6-6,6-6-2.69-6-6Z"/><path d="M30.91,82.87c0,6.07,4.93,11,11,11s11-4.93,11-11-4.93-11-11-11-11,4.93-11,11Zm5,0c0-3.31,2.69-6,6-6s6,2.69,6,6-2.69,6-6,6-6-2.69-6-6Z"/></g></g></svg>