<?xml version="1.0" encoding="UTF-8"?><svg id="_レイヤー_2" xmlns="http://www.w3.org/2000/svg" viewBox="0 0 70.23 61.51"><g id="_レイヤー_1-2"><path d="M35.12,61.51c-.57,0-1.14-.19-1.6-.58-.77-.64-18.84-15.79-26.54-24.67C-1.53,26.46-2.36,12.97,5.07,5.54,12.44-1.83,24.44-1.84,31.82,5.54l3.3,3.3,3.3-3.3c3.57-3.57,8.32-5.54,13.37-5.54h0c5.05,0,9.8,1.97,13.38,5.54,7.43,7.43,6.6,20.92-1.9,30.71-7.71,8.88-25.78,24.03-26.54,24.67-.46,.39-1.03,.58-1.6,.58ZM18.44,5c-3.72,0-7.21,1.45-9.84,4.08-5.49,5.49-4.53,16.21,2.14,23.9,6.15,7.08,19.72,18.8,24.37,22.76,4.66-3.96,18.23-15.68,24.37-22.76,6.67-7.69,7.63-18.41,2.14-23.9-2.63-2.63-6.12-4.08-9.84-4.08s-7.21,1.45-9.84,4.08l-5.07,5.06c-.98,.98-2.56,.98-3.54,0l-5.06-5.06c-2.63-2.63-6.12-4.08-9.84-4.08Z"/></g></svg>