<svg xmlns="http://www.w3.org/2000/svg" xmlns:xlink="http://www.w3.org/1999/xlink" width="18.459" height="18.459" viewBox="0 0 18.459 18.459">
  <defs>
    <clipPath id="clip-path">
      <rect id="長方形_189" data-name="長方形 189" width="18.459" height="18.459" fill="#111"/>
    </clipPath>
  </defs>
  <g id="グループ_248" data-name="グループ 248" clip-path="url(#clip-path)">
    <path id="パス_63" data-name="パス 63" d="M9.23,1.662c2.466,0,2.758.011,3.728.054a5.058,5.058,0,0,1,1.713.317,2.854,2.854,0,0,1,1.06.689,2.839,2.839,0,0,1,.689,1.06,5.079,5.079,0,0,1,.317,1.713c.043.973.054,1.265.054,3.728s-.011,2.758-.054,3.728a5.058,5.058,0,0,1-.317,1.713,3.042,3.042,0,0,1-1.749,1.749,5.079,5.079,0,0,1-1.713.317c-.973.043-1.266.054-3.728.054s-2.758-.011-3.728-.054a5.057,5.057,0,0,1-1.713-.317,2.854,2.854,0,0,1-1.06-.689,2.839,2.839,0,0,1-.689-1.06,5.078,5.078,0,0,1-.317-1.713c-.043-.973-.054-1.265-.054-3.728s.011-2.758.054-3.728a5.057,5.057,0,0,1,.317-1.713,2.854,2.854,0,0,1,.689-1.06,2.839,2.839,0,0,1,1.06-.689A5.079,5.079,0,0,1,5.5,1.716C6.472,1.673,6.764,1.662,9.23,1.662ZM9.23,0C6.724,0,6.41.011,5.426.054A6.744,6.744,0,0,0,3.187.483,4.5,4.5,0,0,0,1.55,1.55,4.522,4.522,0,0,0,.483,3.184,6.763,6.763,0,0,0,.054,5.422C.011,6.41,0,6.724,0,9.23s.011,2.819.054,3.8a6.744,6.744,0,0,0,.429,2.239A4.5,4.5,0,0,0,1.55,16.909a4.512,4.512,0,0,0,1.633,1.064,6.764,6.764,0,0,0,2.239.429c.984.043,1.3.054,3.8.054s2.819-.011,3.8-.054a6.744,6.744,0,0,0,2.239-.429,4.715,4.715,0,0,0,2.7-2.7,6.763,6.763,0,0,0,.429-2.239c.043-.984.054-1.3.054-3.8s-.011-2.819-.054-3.8a6.743,6.743,0,0,0-.429-2.239,4.323,4.323,0,0,0-1.056-1.64A4.512,4.512,0,0,0,15.276.487,6.763,6.763,0,0,0,13.037.058C12.049.011,11.735,0,9.23,0Z" transform="translate(0 0)" fill="#111"/>
    <path id="パス_64" data-name="パス 64" d="M16.413,11.672a4.741,4.741,0,1,0,4.741,4.741A4.742,4.742,0,0,0,16.413,11.672Zm0,7.816a3.075,3.075,0,1,1,3.075-3.075A3.076,3.076,0,0,1,16.413,19.488Z" transform="translate(-7.183 -7.183)" fill="#111"/>
    <path id="パス_65" data-name="パス 65" d="M36.151,9.413a1.107,1.107,0,1,1-1.107-1.107A1.107,1.107,0,0,1,36.151,9.413Z" transform="translate(-20.886 -5.112)" fill="#111"/>
  </g>
</svg>
