<svg xmlns="http://www.w3.org/2000/svg" width="18.459" height="17.69" viewBox="0 0 18.459 17.69">
  <path id="パス_68" data-name="パス 68" d="M16.479,13.172A29.692,29.692,0,0,1,9.23,18.557c-.943.4-.85-.2-.809-.463h0l0-.033q.026-.139.13-.792a1.853,1.853,0,0,0-.026-.844c-.1-.261-.51-.391-.813-.461C3.278,15.382,0,12.258,0,8.535,0,4.384,4.135,1,9.23,1s9.23,3.384,9.23,7.535A6.762,6.762,0,0,1,16.479,13.172Zm-1.234-2.384h-2.6a.174.174,0,0,1-.173-.174V6.56a.174.174,0,0,1,.173-.174h2.6a.174.174,0,0,1,.173.174v.661a.174.174,0,0,1-.173.174H13.48v.687h1.765a.174.174,0,0,1,.173.174v.661a.174.174,0,0,1-.173.174H13.48v.687h1.765a.174.174,0,0,1,.173.174v.661A.174.174,0,0,1,15.244,10.788Zm-12.188,0h2.6a.174.174,0,0,0,.173-.174V9.953a.174.174,0,0,0-.173-.174H3.887V6.56a.174.174,0,0,0-.173-.174H3.056a.174.174,0,0,0-.173.174v4.054A.174.174,0,0,0,3.056,10.788Zm4.152-4.4H6.551a.173.173,0,0,0-.173.174v4.054a.174.174,0,0,0,.173.174h.657a.174.174,0,0,0,.173-.174V6.56A.174.174,0,0,0,7.208,6.386Zm4.637,4.228V6.56a.176.176,0,0,0-.182-.174h-.649a.182.182,0,0,0-.182.174v2.4L8.99,6.464a.025.025,0,0,0-.009-.017l-.017-.017L8.956,6.42H8.947a.008.008,0,0,0-.009-.009V6.4H8.921l-.009-.009H8.9A.008.008,0,0,1,8.9,6.386h-.7a.182.182,0,0,0-.182.174v4.054a.182.182,0,0,0,.182.174h.649a.176.176,0,0,0,.182-.174V8.2l1.842,2.506a.155.155,0,0,0,.043.043h.009a.008.008,0,0,0,.009.009l.009.009h.017v.009h.017a.1.1,0,0,0,.043.009h.649A.176.176,0,0,0,11.845,10.614Z" transform="translate(0 -1)" fill="#111" fill-rule="evenodd"/>
</svg>
