<?xml version="1.0" encoding="UTF-8"?><svg id="_レイヤー_2" xmlns="http://www.w3.org/2000/svg" viewBox="0 0 80.34 78.84"><g id="_レイヤー_1-2"><path d="M79.61,74.57l-18.77-18.77c4.78-5.89,7.66-13.39,7.66-21.56C68.5,15.36,53.14,0,34.25,0S0,15.36,0,34.25s15.36,34.25,34.25,34.25c8.93,0,17.06-3.44,23.17-9.05l18.66,18.66c.49,.49,1.13,.73,1.77,.73s1.28-.24,1.77-.73c.98-.98,.98-2.56,0-3.54Zm-45.36-11.07c-16.13,0-29.25-13.12-29.25-29.25S18.12,5,34.25,5s29.25,13.12,29.25,29.25-13.12,29.25-29.25,29.25Z"/></g></svg>